<?xml version="1.0" encoding="UTF-8"?>
<svg id="V_Gaming_pc_and_pcs_Image" data-name="V Gaming pc and pcs Image" xmlns="http://www.w3.org/2000/svg" version="1.1" viewBox="0 0 168.75 168.75">
  <defs>
    <style>
      .cls-1 {
        fill: #000;
        stroke-width: 0px;
      }
    </style>
  </defs>
  <path class="cls-1" d="M153.58,110.67v40.34c0,1.04.05,2.1-.08,3.12-.32,2.61-1.63,3.84-4.29,4.08-.93.08-1.88.07-2.81.07h-27.84c-.93,0-1.88.02-2.81-.07-2.87-.26-4.12-1.47-4.29-4.35-.13-2.39-.09-4.79-.09-7.19,0-1.92-.87-2.89-2.84-2.87-3.34.03-6.67-.03-10.01.05-.63.02-1.24.53-1.86.81.25.55.4,1.19.78,1.63,2.05,2.36,4.16,4.67,6.23,7.01.62.7,1.27,1.4,1.73,2.2.75,1.31.23,2.47-1.18,2.54-3.21.16-6.45.15-9.65-.13-.93-.08-1.92-1.2-2.63-2.06-3.55-4.27-8.11-5.92-13.56-5.79-5,.12-10.01.07-15.01.02-5.3-.06-9.87,1.53-13.22,5.8-1.42,1.81-3.14,2.58-5.42,2.43-1.66-.11-3.35.11-5-.08-1.05-.12-2.55-.45-2.91-1.16-.33-.65.38-2.12,1.01-2.91,1.83-2.27,3.86-4.37,5.8-6.55.55-.63,1.11-1.24,1.59-1.92.64-.91.45-1.6-.72-1.76-.82-.12-1.66-.11-2.5-.11-5,0-10.01.03-15.01-.03-4.42-.04-6.22-1.84-6.23-6.34-.03-20.02-.03-40.03,0-60.05,0-4.64,1.79-6.39,6.44-6.46,4.27-.06,8.55-.08,12.82,0,2.11.04,3.56-.63,4.42-2.68,1.69-4.06,4.82-5.81,9.19-5.55,1.98.12,3.97-.08,5.94.13,1.19.13,2.6.43,3.46,1.18,1.9,1.66,4.01,2.05,6.38,1.94,1.66-.08,3.36.12,5-.08,1.19-.14,2.5-.48,3.44-1.15,1.96-1.41,4.05-2.06,6.43-2,1.67.04,3.34.08,5,.03,3.88-.11,6.69,1.61,8.18,5.12,1.02,2.39,2.6,3.29,5.1,3.1,1.76-.14,3.55,0,5.32-.04,2.94-.08,3.21-.34,3.51-3.16.03-.31.03-.63.07-.93.36-2.69,1.51-3.81,4.28-4.02,1.45-.11,2.91-.08,4.37-.08,9.07,0,18.14-.03,27.21,0,4.98.02,6.24,1.31,6.24,6.36.02,13.87,0,27.73,0,41.6h.02ZM71.02,133.56c11.99,0,23.97,0,35.95,0,3.99,0,4.29-.25,4.27-4.24-.03-4.47-.3-8.96-.33-13.43-.06-10.11-.03-20.22-.05-30.33,0-4.2-.21-4.37-4.42-4.36h-.63c-3.04.08-3.12.34-2.55,3.33.66,3.46,1.34,6.95,1.53,10.45.23,4.32-1.74,7.6-5.83,9.47-4.31,1.97-8.18,1.05-11.58-1.92-1.63-1.43-3.01-3.18-4.29-4.94-1.37-1.86-2.84-3.23-5.34-3.22-.87,0-1.78-.53-2.6-.95-2.69-1.4-5.33-1.34-8.06-.08-1.11.52-2.31,1.03-3.51,1.14-1.62.14-2.72.87-3.65,2.08-1.2,1.58-2.36,3.19-3.66,4.67-3.46,3.94-8.65,5.21-12.97,3.26-4.39-1.98-6.84-6.66-6.14-11.9.28-2.06.62-4.14,1.21-6.13,1.39-4.69,2.23-5.45-4.48-5.23-.21,0-.42.03-.63.04-1.41.05-2.04.88-2.14,2.2-.05.73-.08,1.46-.08,2.19-.02,14.48-.03,28.97-.03,43.46,0,4.35.13,4.46,4.66,4.46,11.78,0,23.56,0,35.33,0h.02ZM150.16,93.63v-3.44c0-6.88.03-13.76-.07-20.64-.02-1.03-.49-2.72-1.13-2.91-1.12-.35-2.52.18-3.79.43-.36.08-.68.47-.97.77-2.97,3.23-6.63,4.49-10.97,3.91-.82-.11-1.68-.11-2.5,0-3.81.48-6.89-.78-9.59-3.48-.9-.91-2.2-1.58-3.44-1.95-1.08-.33-2.4-.13-2.7,1.38-.28,1.43-.21,2.8,1.6,3.16,3.35.68,4.58,2.84,4.58,6.09-.03,22.31.03,44.63-.08,66.94,0,1.52-.85,3.15-1.65,4.52-.93,1.6-2.3,2.96-3.41,4.47-.75,1.03-.54,1.76.84,1.88.52.04,1.04.06,1.56.06,9.17,0,18.35.02,27.52-.03.98,0,1.97-.38,2.95-.58-.47-.98-.85-2.01-1.42-2.94-.48-.79-1.13-1.5-1.76-2.2-1.79-1.94-2.6-4.17-2.42-6.84.16-2.39.26-4.82-.02-7.19-.57-4.82.87-8.76,4.37-12.08,1.93-1.82,2.52-4.13,2.48-6.8-.12-7.5-.04-15.02-.04-22.52h.03ZM55.81,66.13c-6.14.04-7.33.78-9.35,6.61-1.57,4.52-3.06,9.09-4.27,13.72-.73,2.79-1.17,5.73-1.15,8.61.03,5.4,5.45,8.58,9.9,5.54,2.81-1.92,4.82-5.07,7.07-7.75.36-.43.18-1.4.08-2.1-.49-3.37.68-5.87,3.32-6.92,2.7-1.08,5.33-.05,7.17,2.8,1.79,2.79,3.18,2.82,4.96.1,1.83-2.8,4.27-3.86,6.86-3.01,2.59.86,3.91,3.2,3.72,6.49-.05.91-.3,2.09.15,2.69,1.93,2.56,3.77,5.36,6.24,7.33,4.28,3.42,10.04.82,10.78-4.64.2-1.51.14-3.17-.25-4.64-1.46-5.53-3.02-11.04-4.7-16.52-2.32-7.59-3.72-8.53-11.61-8.29-3.82.12-4.96,1.11-5.56,4.84-.48,3.02-1.92,4.37-4.99,4.53-1.56.08-3.12.05-4.69.04-4.85-.03-6.01-.97-6.81-5.77-.34-2.06-1.56-3.14-3.45-3.51-1.11-.22-2.28-.14-3.42-.19v.02ZM70.97,140.39h40.65c1.04,0,2.09-.02,3.12-.04,1.87-.04,2.92-.92,2.94-2.86,0-.83.03-1.67.03-2.5v-55.34c0-.83-.03-1.67-.04-2.5-.04-1.79-1.02-2.67-2.75-2.71-2.09-.05-4.17-.06-6.25-.06-1.98,0-3.97-.07-5.94.11-.66.06-1.26.77-1.89,1.18.57.64,1.04,1.46,1.74,1.87.57.33,1.42.2,2.15.21,1.98.03,3.97-.02,5.94.03,3.2.07,3.64.47,3.7,3.62.16,7.6.32,15.21.38,22.81.07,9.38.04,18.76.03,28.14,0,4.56-.56,5.1-4.97,5.15H32.89c-.93,0-1.88.02-2.81-.08-1.44-.13-2.3-.97-2.41-2.41-.09-1.14-.09-2.29-.09-3.44,0-16.05.02-32.1.03-48.16,0-3.77,1.92-5.66,5.75-5.67,2.08,0,4.18.05,6.24-.23.65-.09,1.18-1.16,1.76-1.78-.58-.44-1.17-1.25-1.76-1.27-4.27-.1-8.55-.08-12.81-.02-1.44.02-2.3.88-2.47,2.34-.09.83-.12,1.66-.12,2.5,0,18.76-.02,37.52,0,56.29,0,4.37.47,4.82,4.88,4.82,13.97.02,27.93,0,41.9,0v.02ZM71.03,143.8h0c-5.41,0-10.82-.06-16.23.06-1.27.03-2.88.29-3.72,1.09-2.63,2.5-4.98,5.3-7.39,8.03-.28.33-.5,1.1-.33,1.34.25.32,1.04.57,1.37.4,1.17-.57,2.44-1.14,3.31-2.05,3.99-4.12,8.71-6.19,14.5-6.04,5.3.15,10.62.2,15.92-.02,6.33-.26,11.65,1.54,15.84,6.44.63.73,1.64,1.24,2.56,1.59.48.18,1.16-.18,1.75-.31-.16-.55-.17-1.24-.51-1.63-1.82-2.14-3.87-4.09-5.55-6.33-1.56-2.09-3.46-2.69-5.93-2.63-5.2.12-10.4.03-15.6.03h0ZM150.11,137.19h.05c0-2.19.1-4.38-.04-6.56-.07-1-.63-1.96-.96-2.95-.69.97-1.43,1.91-2.06,2.91-.2.32-.15.81-.15,1.23,0,3.54-.06,7.09.03,10.63.03,1,.32,2.07.77,2.97.26.53,1.06.79,1.61,1.19.25-.53.71-1.06.73-1.6.08-2.6.03-5.21.03-7.81h0ZM71.03,69.27c-.95.1-2.1.15-3.19.39-.35.08-.73.68-.82,1.09-.06.28.36.93.58.94,2.33.08,4.67.1,7,0,.27,0,.75-.8.7-1.19-.05-.37-.6-.88-1-.96-1-.21-2.05-.2-3.26-.3h0ZM132.51,67.73v-.03c1.75,0,3.5.03,5.25-.03.28,0,.55-.48.82-.74-.29-.23-.58-.64-.88-.64-3.51-.04-7-.03-10.51.03-.28,0-.54.46-.82.7.29.24.58.68.88.68,1.74.07,3.5.03,5.25.03h0ZM63.32,91.54c.91-1.1,1.85-1.74,1.84-2.36-.02-.65-.95-1.27-1.49-1.9-.63.54-1.64,1.01-1.75,1.64-.11.62.7,1.39,1.41,2.63ZM78.84,86.59c-.88,1.07-1.84,1.72-1.82,2.34.03.64.96,1.7,1.55,1.74.6.04,1.69-.88,1.79-1.51.1-.62-.77-1.39-1.52-2.57Z"/>
  <path class="cls-1" d="M66.91,126.85c-1.1.78-1.73,1.58-2.29,1.54-.59-.04-1.13-.88-1.68-1.38.51-.52.98-1.38,1.55-1.46.57-.08,1.24.63,2.41,1.3Z"/>
  <path class="cls-1" d="M78.82,124.73c.65,1.21,1.25,1.84,1.23,2.46-.02.45-1.02,1.29-1.33,1.19-.62-.21-1.4-.89-1.48-1.46-.07-.49.75-1.11,1.57-2.19h0Z"/>
  <path class="cls-1" d="M73.76,127.19c-1.09.57-1.75,1.17-2.4,1.16-.39,0-1.2-1.19-1.07-1.44.31-.59,1.04-1.18,1.69-1.29.38-.07.92.78,1.78,1.59h0Z"/>
  <path class="cls-1" d="M139.92,137.31c-.02,4.19-3.39,7.62-7.48,7.61-4.25,0-7.77-3.56-7.75-7.79.03-4.13,3.44-7.45,7.65-7.45,4.7,0,7.59,2.91,7.57,7.63h0ZM136.41,137.33c.1-2.14-1.61-4.01-3.76-4.12-2.2-.12-4.22,1.78-4.26,4.01-.04,2.13,1.74,3.91,3.93,3.96,2.1.04,3.99-1.75,4.09-3.85h0Z"/>
  <path class="cls-1" d="M133.72,82.4c-2.8,0-5.62.03-8.42,0-1.21-.02-2.55-.33-2.34-1.79.09-.64,1.39-1.56,2.17-1.58,5.82-.13,11.64-.08,17.46-.04,1.08,0,2.35.41,2.02,1.73-.18.7-1.38,1.56-2.17,1.61-2.9.19-5.82.08-8.73.08h0Z"/>
  <path class="cls-1" d="M133.71,106.81c-2.7,0-5.4.03-8.11,0-1.27-.02-2.73-.07-2.72-1.8,0-1.58,1.42-1.59,2.55-1.59,5.61-.03,11.22-.03,16.83,0,1.15,0,2.5.11,2.41,1.73-.09,1.5-1.37,1.65-2.55,1.66-2.8.03-5.61,0-8.41,0h0v.02Z"/>
  <path class="cls-1" d="M134.11,91c2.7,0,5.39-.03,8.09,0,1.17.02,2.48.16,2.45,1.71-.03,1.54-1.38,1.65-2.52,1.66-5.6.03-11.19.03-16.79,0-1.14,0-2.5-.08-2.44-1.69.05-1.52,1.33-1.68,2.51-1.69,2.9-.03,5.81,0,8.71,0v.02Z"/>
  <path class="cls-1" d="M134.57,117.05c-.9.74-1.49,1.55-1.87,1.47-.63-.15-1.34-.78-1.6-1.39-.12-.28.76-1.41,1.14-1.39.65.03,1.28.68,2.33,1.31h0Z"/>
  <path class="cls-1" d="M54.39,72.07c2.45,2.65,4.1,4.4,5.65,6.24.08.09-.58,1.15-1.06,1.33-1.29.47-1.94,1.28-2.5,2.52-.74,1.64-1.93,1.49-3.02-.03-.62-.86-1.37-1.69-2.23-2.29-1.73-1.19-1.75-2.09-.08-3.25.86-.6,1.59-1.44,2.24-2.28.43-.56.61-1.32,1-2.24Z"/>
  <path class="cls-1" d="M87.04,76.78c-.7-1.06-1.49-1.74-1.39-2.24.12-.58,1.03-1.4,1.57-1.39.53.02,1.39.93,1.45,1.5.05.52-.81,1.12-1.62,2.11h0Z"/>
  <path class="cls-1" d="M92.82,78.19c-.99.74-1.64,1.54-1.99,1.42-.64-.22-1.1-.96-1.64-1.49.46-.46.93-1.31,1.37-1.29.63.03,1.22.69,2.26,1.36h0Z"/>
  <path class="cls-1" d="M87.25,83.97c-.83-1.03-1.7-1.63-1.66-2.16.04-.52.96-1.24,1.59-1.34.42-.08,1.42.75,1.42,1.17,0,.63-.67,1.24-1.34,2.35h0Z"/>
  <path class="cls-1" d="M84.27,75.99c.27.64.82,1.34.72,1.92-.11.64-.81,1.19-1.25,1.77-.51-.39-1.39-.75-1.44-1.19-.06-.61.52-1.28.83-1.92.38-.19.77-.38,1.15-.58h0Z"/>
</svg>