<?xml version="1.0" encoding="UTF-8"?>
<svg id="Layer_1" data-name="Layer 1" xmlns="http://www.w3.org/2000/svg" version="1.1" viewBox="0 0 500 500">
  <defs>
    <style>
      .cls-1 {
        fill: #000;
        stroke-width: 0px;
      }
    </style>
  </defs>
  <path class="cls-1" d="M286.8,459.85h-157.44c-12.34,0-21.28-5.07-26.77-16.21-1.96-3.99-2.83-7.98-2.83-12.2-.04-82.54,0-165.07-.04-247.61,0-8.33,3.36-15.3,9.17-20.97,4.42-4.32,10.09-6.86,16.5-7.26,1.44-.09,2.89-.09,4.33-.09,61.23,0,122.44.09,183.66-.1,9.42-.03,17.53,2.32,23.98,9,4.81,5,6.92,11.31,7.01,18.16.1,8.88.03,17.77.03,26.65v57.58c0,2.23-1.17,3.35-3.51,3.36-1.83,0-3.68-.1-5.49.03-1.98.13-2.69-.54-2.66-2.54.12-6.15.04-12.29.04-18.44v-40.84c0-2.9-.01-2.92-3.05-2.92H115.12c-3.18,0-3.2.01-3.2,3.1v197.68c0,2.95,0,2.96,3.24,2.96h151.56c.67,0,1.35.04,2.02,0,1.24-.09,1.73.45,1.71,1.65-.04,2.46-.06,4.91,0,7.37.03,1.35-.57,1.88-1.89,1.8-1.06-.06-2.11,0-3.18,0H116.42c-1.06,0-2.14-.1-3.17.09-.48.09-1.24.76-1.22,1.15.07,5.07-.24,10.22.55,15.19,1.31,8.24,8.6,12.99,16.59,13.01,47.34.04,94.67.04,142.01-.03,3.32,0,5.76.65,7.9,3.45,1.96,2.56,4.85,4.45,7.71,6.99h0ZM222.27,194.72h102.93c1.74,0,3.48-.12,5.19.03,1.96.16,2.47-.64,2.4-2.44-.13-3.21-.06-6.43-.03-9.64.06-9.12-8.07-16.43-16.94-16.4-62.45.18-124.89.09-187.34.1-8.5,0-14.81,5.12-16.03,13.32-.58,3.9-.42,7.9-.49,11.86-.06,3.14,0,3.16,3.33,3.16h106.97Z"/>
  <path class="cls-1" d="M274.58,368.03c0-21.27.12-42.55-.07-63.82-.06-6.32,1.79-11.94,5.25-17,6.32-9.21,15.61-12.95,26.71-12.96,23.81,0,47.62-.12,71.43-.04,3.51,0,7.13.52,10.54,1.4,6.4,1.65,11.55,5.22,15.69,10.42,4.24,5.33,5.8,11.24,5.79,17.89-.07,42.35-.01,84.71-.07,127.06,0,2.81-.12,5.77-1.01,8.39-3.96,11.58-12.41,18.22-24.57,20.39-1.98.36-4.02.46-6.04.48-23.92.03-47.82.01-71.73.01-9.84,0-18.5-3.14-24.81-10.61-4.36-5.16-7.02-11.21-6.96-18.35.21-21.07.07-42.16.07-63.23h-.21v-.03ZM397.04,367.51v-51.03c0-3.05-.01-3.07-3.17-3.07h-102.93c-3.44,0-3.45,0-3.45,3.42v101.78c0,3.39,0,3.41,3.53,3.41h102.63c3.38,0,3.39-.01,3.39-3.48v-51.03h0ZM342.34,301.95h51.78c3.08,0,3.26-.27,2.54-3.29-1.85-7.93-8.57-12.71-16.82-12.98-7.8-.25-15.61-.06-23.42-.06-16.97,0-33.93.03-50.9,0-7.65-.01-15.83,5.06-17.55,12.56-.79,3.42-.6,3.78,2.9,3.78h51.48-.01ZM342.32,433.47h-50.3c-.86,0-1.74.04-2.6.01-1.44-.06-1.92.64-1.62,1.93.79,3.41,2.26,6.5,5.06,8.71,4.18,3.29,9,4.79,14.45,4.72,10.31-.13,20.63-.03,30.94-.04,13.59,0,27.17.06,40.76-.04,8.6-.06,15.19-4.73,17.35-11.98.95-3.18.89-3.29-2.59-3.3h-51.46.01Z"/>
  <path class="cls-1" d="M232.19,434.61c.1,5.73-3.79,9.76-9.81,9.58-5.27-.15-10.54-3.53-10.6-9.2-.07-6.18,4.24-9.54,10.42-9.93,5.88-.37,9.9,3.68,10,9.52h-.01Z"/>
  <path class="cls-1" d="M221.95,182.54c-1.5-.12-2.52-.94-2.6-2.62-.09-1.62,1.24-2.92,2.9-2.75,1.58.16,3.05.63,3.13,2.6.06,1.68-1.25,2.78-3.42,2.77Z"/>
  <path class="cls-1" d="M342.29,292.19h13.86c1.29,0,2.71.01,2.68,1.76-.03,1.67-1.38,1.8-2.71,1.8h-27.7c-1.31,0-2.68-.12-2.68-1.82s1.43-1.76,2.71-1.76h13.86-.01Z"/>
  <path class="cls-1" d="M349.09,441.61c-.07,3.59-3.01,6.12-6.94,6.04-2.65-.04-7.1-2.86-6.79-6.35.27-3.13,3.63-6.13,7.11-6.01,4,.13,6.7,2.69,6.61,6.32Z"/>
</svg>