<?xml version="1.0" encoding="UTF-8"?>
<svg id="Layer_1" data-name="Layer 1" xmlns="http://www.w3.org/2000/svg" version="1.1" viewBox="0 0 283 428">
  <defs>
    <style>
      .cls-1 {
        fill: #000;
      }

      .cls-1, .cls-2 {
        stroke-width: 0px;
      }

      .cls-2 {
        fill: #fff;
      }
    </style>
  </defs>
  <path class="cls-2" d="M180.33,419.47c6.7,0,10.45-3.71,10.49-10.31.04-6.86-.1-13.73.2-20.58.32-7.48,2.45-14.48,7.26-20.43,1.85-2.29,3.87-4.43,5.52-6.29h-120.06c9.08,6.42,13.18,15.07,13.87,25.28.5,7.26.33,14.57.39,21.85.06,6.85,3.65,10.47,10.51,10.47"/>
  <path class="cls-2" d="M108.25,122.78c-6.37,0-10.19,3.82-10.26,10.12-.1,7.78.08,15.6-.5,23.35-.62,8.27-3.9,15.6-10.16,21.36-1.01.94-2.14,1.75-3.47,2.82h121.18c-1.24-.95-2.12-1.57-2.93-2.26-7.48-6.47-10.62-14.97-11.1-24.47-.36-6.92-.15-13.86-.2-20.79-.05-6.35-3.85-10.1-10.29-10.1"/>
  <path class="cls-2" d="M221.02,318.23c.8-.07,1.36-.14,1.93-.15,4.18-.11,4.64-.57,4.64-4.79v-44.4c0-3.22-.74-3.94-3.9-3.97-.5,0-1.06.12-1.5-.05s-1.1-.61-1.1-.94c-.07-4.71-.05-9.41-.05-14.08,4.46-.49,6.46-2.24,6.55-5.87.12-4.15.11-8.29,0-12.44-.08-3.12-1.8-4.97-4.89-5.66-.54-.12-1.07-.26-1.7-.41v-14.68c.02-14.91-10.58-25.92-25.63-25.99-33.97-.15-67.93-.01-101.9-.06-15.59-.02-25.81,12.39-25.81,24.52,0,41.46-.01,82.93.01,124.38,0,11.82,9.33,22.38,21.11,24.06,1.49.21,3,.39,4.5.41,33.97.02,67.93.04,101.9,0,9.15,0,16.41-3.79,21.59-11.3,3.01-4.37,4.25-9.31,4.22-14.57-.04-4.64,0-9.26,0-13.99v-.02Z"/>
  <path class="cls-1" d="M108.49,419.47c-6.86,0-10.45-3.63-10.51-10.47-.06-7.29.11-14.6-.39-21.85-.7-10.2-4.79-18.85-13.87-25.28h120.06c-1.63,1.86-3.67,4-5.52,6.29-4.8,5.96-6.93,12.95-7.26,20.43-.3,6.85-.15,13.71-.2,20.58-.04,6.6-3.79,10.31-10.49,10.31"/>
  <path class="cls-1" d="M180.51,122.78c6.45,0,10.25,3.75,10.29,10.1.05,6.93-.15,13.88.2,20.79.49,9.51,3.62,18,11.1,24.47.81.7,1.69,1.32,2.93,2.26h-121.18c1.32-1.07,2.45-1.88,3.47-2.82,6.27-5.77,9.54-13.09,10.16-21.36.58-7.76.41-15.56.5-23.35.07-6.28,3.88-10.1,10.26-10.12"/>
  <path class="cls-1" d="M221.02,318.23c0,4.72-.02,9.35,0,13.99.04,5.28-1.2,10.2-4.22,14.57-5.18,7.51-12.44,11.28-21.59,11.3-33.97.04-67.93.02-101.9,0-1.5,0-3.01-.19-4.5-.41-11.78-1.68-21.1-12.24-21.11-24.06-.04-41.46,0-82.93-.01-124.38,0-12.13,10.22-24.55,25.81-24.52,33.97.05,67.93-.1,101.9.06,15.06.07,25.67,11.08,25.63,25.99v14.68c.63.15,1.17.29,1.7.41,3.09.69,4.8,2.54,4.89,5.66.11,4.15.12,8.29,0,12.44-.11,3.63-2.11,5.39-6.55,5.87,0,4.67-.02,9.38.05,14.08,0,.33.66.77,1.1.94.44.17,1,.04,1.5.05,3.16.02,3.88.76,3.9,3.97v44.4c0,4.22-.45,4.68-4.64,4.79-.56.01-1.12.1-1.93.15v.02ZM74.39,271.52c0,20.37-.05,40.74.02,61.11.04,10.9,8.09,18.73,19.08,18.73h101.66c10.95,0,19.12-7.9,19.14-18.72.05-40.81.05-81.62,0-122.43,0-10.78-8.22-18.75-19.14-18.75h-101.02c-11.95,0-19.76,7.74-19.76,19.61v60.47-.02Z"/>
  <path class="cls-2" d="M74.39,271.52v-60.47c0-11.87,7.79-19.61,19.76-19.61h101.02c10.9,0,19.12,7.97,19.14,18.75.04,40.81.05,81.62,0,122.43-.01,10.82-8.19,18.72-19.14,18.72h-101.66c-10.99,0-19.04-7.83-19.08-18.73-.07-20.37-.02-40.74-.02-61.11v.02ZM121.91,239.26c2.01.01,4.07.86,5.16-1.76.21-.52,1.48-.88,2.26-.89,5.12-.08,10.25-.11,15.36.02.92.02,2.17.68,2.66,1.43,2.16,3.36.02,7.09-3.94,7.1-4.84.02-9.66-.07-14.5.06-3.77.1-6.47,2.57-7.01,6.1-.8,5.24.89,9.08,4.64,10.46.46.18.98.35,1.47.35,5.98.02,11.97.18,17.94-.04,3.61-.13,6.23-3.46,5.89-6.89-1.76.13-3.78-.86-4.85,1.73-.25.6-1.73.95-2.65.98-4.83.1-9.66.08-14.5.05-2.95-.02-3.68-.97-3.66-4.49.02-3.03.87-3.94,3.75-3.97,4.75-.02,9.52.04,14.27-.02,3.96-.05,6.97-2.12,7.66-5.37.3-1.37.21-2.85.2-4.27-.02-4.54-2.78-7.48-7.3-7.57-5.2-.11-10.39-.11-15.57,0-4.23.1-6.68,2.48-7.32,6.99h.04ZM166.15,317.37h0c3.24,0,6.48.05,9.71-.02,2.97-.07,5.18-2.03,5.56-4.72.41-2.86-1.25-5.24-4.12-6.22-.66-.23-1.43-.86-1.64-1.47-2-5.83-8.21-7.27-12.71-2.93-.43.41-1.33.61-1.94.5-2.63-.45-4.5.43-5.68,2.78-.3.58-.73,1.2-1.26,1.56-2.63,1.72-3.61,3.84-2.88,6.49.69,2.51,2.82,3.99,5.91,4.03,3.03.04,6.04,0,9.07,0h0ZM186.31,247.23c2.34-2.56,2.24-5.61,1.94-8.61-.32-3.36-2.79-6.06-6.15-6.2-5.97-.24-11.96-.25-17.93,0-3.53.15-5.9,3.17-5.97,7.23,1.5-.37,3.43-.29,4.16-1.17,1.1-1.33,2.12-1.95,3.75-1.94,4.68.04,9.38,0,14.06.02,3.09.01,3.86.95,3.84,4.55-.01,3.03-.85,3.9-3.77,3.91h-7.26v4.44c2.59,0,5.1-.01,7.6,0,2.44.02,3.35.93,3.42,3.38.02.57.02,1.14,0,1.72-.1,2.26-1.06,3.34-3.3,3.36-5.05.05-10.09.06-15.14-.04-.83-.01-2.17-.43-2.42-1.01-1.14-2.68-3.15-1.58-4.98-1.56.24,3.92,2.87,6.76,6.55,6.84,5.62.13,11.25.11,16.87,0,3.24-.06,5.83-2.19,6.43-5.35.64-3.28.75-6.57-1.73-9.59h.01ZM119.89,313.05c-1.57-.1-2.93-.54-3.85,1.22-.27.52-1.5.77-2.3.79-3.46.08-6.92.06-10.38.02-2.5-.02-3.03-.64-3-3.34.01-2.53.54-3.1,3-3.11,3.53-.02,7.07.05,10.59-.02,3.06-.06,5.24-1.43,5.73-3.93.33-1.7.33-3.57-.04-5.28-.49-2.32-2.31-3.69-4.68-3.78-4.31-.15-8.65-.15-12.96,0-2.91.1-4.84,2.42-4.71,5.3,1.37.06,2.76.55,3.63-1.26.25-.51,1.49-.74,2.28-.76,3.46-.08,6.92-.05,10.38-.04,2.53.01,3.04.55,3.07,3.01.04,2.79-.54,3.47-3.09,3.5-3.67.04-7.35-.02-11.02.02-3.24.05-5.39,2.19-5.48,5.37-.02.71-.02,1.43,0,2.14.12,3.1,2.23,5.28,5.33,5.34,4.04.07,8.08.06,12.11,0,3.1-.05,4.97-1.85,5.4-5.21h-.01ZM145.67,307.11c0-2,.04-4,0-6.01-.07-3.32-2.2-5.48-5.58-5.54-3.88-.06-7.78-.06-11.68,0-3.28.05-5.52,2.09-5.62,5.3-.14,4.06-.14,8.15,0,12.21.12,3.12,2.36,5.15,5.48,5.18,3.97.06,7.92.06,11.89,0,3.26-.05,5.4-2.17,5.49-5.37.05-1.93,0-3.86.01-5.79h0ZM104.04,262.09c0-8,.12-15.78-.05-23.54-.07-3.53-3.23-6.11-7.23-6.09.37,1.48.3,3.32,1.18,4.15,1.18,1.08,1.85,2.01,1.83,3.57-.04,5.15-.01,10.28-.01,15.43v6.49h4.28ZM175.78,301.34c.87,2.61,1.85,4.77,4.72,5.53.88.24,1.7,1.57,2.06,2.57.43,1.19,1.11,1.31,2.11,1.24,1.99-.14,3.28-1.18,3.59-3.1.29-1.83-.66-3.11-2.36-3.9-.52-.24-1.13-.61-1.37-1.08-2.11-4.25-5.66-4.78-8.75-1.26h0ZM105.42,278.26l.48.07c0,1.33-.04,2.67,0,4,.04,1.26.15,2.51.24,3.78.26-.04.54-.06.8-.1v-11.15c-.21-.08-.42-.17-.63-.25-1.37,2.25-2.74,4.5-4.11,6.76-1.79-2.17-2.45-4.97-4.87-6.72v11.41c.27.01.56.02.83.05v-7.72c.19,0,.38.01.57.02,1.1,1.69,2.18,3.4,3.42,5.31,1.22-2.04,2.23-3.75,3.25-5.46h.02ZM116.15,237.95c-.04-2.22-1.51-3.74-3.57-3.71-2.07.04-3.53,1.6-3.5,3.79.01,2.19,1.51,3.73,3.59,3.69,2.09-.04,3.54-1.6,3.5-3.78h-.01ZM116.15,259.13c-.05-2.25-1.45-3.68-3.6-3.65-2.1.04-3.51,1.56-3.49,3.78.01,2.18,1.5,3.68,3.62,3.65s3.51-1.55,3.47-3.78ZM138.69,280.54c-.18-1.17-.26-2.17-.49-3.15-.39-1.72-1.39-2.78-3.29-2.81-1.88-.04-3.21.99-3.4,2.67-.26,2.22-.18,4.53.12,6.74.2,1.57,1.56,2.36,3.18,2.35,1.63-.01,2.75-.88,3.21-2.39.35-1.16.46-2.37.67-3.41h0ZM169.97,280.73c-.2-1.35-.3-2.41-.52-3.46-.36-1.66-1.41-2.62-3.16-2.7-1.86-.08-3.26.86-3.43,2.57-.24,2.36-.21,4.81.25,7.13.17.85,1.88,1.91,2.91,1.93,1.02.02,2.42-.92,3.03-1.85.69-1.06.69-2.56.94-3.65v.02ZM187.72,280.74c-.19-1.36-.29-2.43-.51-3.47-.37-1.64-1.39-2.63-3.16-2.7-1.85-.07-3.26.85-3.44,2.57-.24,2.36-.2,4.81.25,7.13.17.85,1.88,1.91,2.91,1.92,1.02.02,2.43-.92,3.03-1.83.69-1.06.68-2.56.93-3.63v.02ZM113.76,274.64c-.21-.02-.42-.04-.63-.06-1.42,3.78-2.82,7.55-4.24,11.32.21.12.42.23.63.35.36-.48.93-.91,1.04-1.43.35-1.61,1.33-1.87,2.81-1.85,1.42.02,2.49.13,2.84,1.8.12.54.8.95,1.22,1.43.18-.15.36-.3.54-.45-1.39-3.71-2.8-7.4-4.19-11.1h0ZM151.17,293.17c-1.6-.04-2.92,1.18-2.99,2.76-.07,1.58,1.13,2.92,2.72,3.01,1.68.11,3.1-1.19,3.12-2.85.01-1.56-1.27-2.88-2.85-2.92h0ZM126,275.09c-2.69.6-2.56,3.41-4.15,4.84-1.63-1.48-1.5-4.38-4.38-5.42.19.69.21.89.3,1.07,1.53,3.1,4,5.85,3.36,9.7-.04.21.46.52.71.79.19-.41.6-.83.54-1.2-.38-2.67.8-4.85,2.1-7.02.54-.89,1.01-1.83,1.51-2.75h.01ZM173.82,284.8c.63-.85,1.32-1.51,1.7-2.32.8-1.72,1.72-3.47,2.01-5.29.12-.73-1.12-2.09-2.04-2.47-1.24-.51-2.67-.14-3.91,1.41h1.31c1,.05,2.59-.25,2.87.23.48.81.37,2.16.08,3.16-.3,1.06-1.04,2.03-1.69,2.95-.81,1.14-1.73,2.19-2.66,3.35h6.45c0-.23.01-.44.02-.67-1.32-.11-2.65-.23-4.12-.35h-.04ZM153.72,285.88h6.42c.02-.24.04-.48.06-.73-1.33-.12-2.68-.24-3.61-.33,1.11-2.36,2.37-4.65,3.24-7.08.46-1.3-.24-2.61-1.73-3-1.45-.39-2.9-.3-3.81,1.25.62.07,1.17-.11,1.73-.21,1.82-.36,2.87.57,2.49,2.38-.23,1.08-.73,2.18-1.35,3.12-1.01,1.54-2.2,2.95-3.44,4.59h0ZM141.2,285.2c0,.21-.02.42-.04.63h5.62l.1-.57c-.69-.18-1.37-.37-2.36-.63v-10.49c-1.62,1.31-2.81,2.28-4,3.23.14.2.29.41.43.6.73-.39,1.47-.79,2.32-1.24v7.97c-.77.18-1.43.33-2.09.49h.01Z"/>
  <path class="cls-1" d="M121.91,239.26c.63-4.52,3.09-6.91,7.32-6.99,5.2-.11,10.39-.12,15.57,0,4.53.1,7.28,3.04,7.3,7.57,0,1.43.08,2.9-.2,4.27-.7,3.24-3.71,5.33-7.66,5.37-4.75.06-9.52,0-14.27.02-2.9.01-3.74.93-3.75,3.97-.02,3.53.7,4.48,3.66,4.49,4.84.04,9.66.06,14.5-.05.92-.02,2.39-.38,2.65-.98,1.06-2.59,3.09-1.6,4.85-1.73.35,3.43-2.26,6.76-5.89,6.89-5.97.23-11.96.07-17.94.04-.49,0-.99-.18-1.47-.35-3.74-1.38-5.43-5.22-4.64-10.46.54-3.51,3.24-6.01,7.01-6.1,4.83-.12,9.66-.04,14.5-.06,3.97-.01,6.1-3.74,3.94-7.1-.49-.75-1.74-1.41-2.66-1.43-5.11-.13-10.24-.11-15.36-.02-.79.01-2.05.36-2.26.89-1.08,2.62-3.15,1.78-5.16,1.76h-.04Z"/>
  <path class="cls-1" d="M166.15,317.37c-3.03,0-6.04.02-9.07,0-3.07-.04-5.22-1.51-5.91-4.03-.74-2.66.25-4.78,2.88-6.49.54-.35.97-.97,1.26-1.56,1.18-2.35,3.05-3.24,5.68-2.78.61.11,1.51-.1,1.94-.5,4.5-4.33,10.71-2.9,12.71,2.93.21.62.99,1.24,1.64,1.47,2.87.98,4.53,3.36,4.12,6.22-.37,2.69-2.6,4.65-5.56,4.72-3.24.07-6.48.01-9.71.01h0Z"/>
  <path class="cls-1" d="M186.31,247.23c2.48,3.03,2.37,6.32,1.73,9.59-.62,3.16-3.21,5.29-6.43,5.35-5.62.11-11.25.13-16.87,0-3.68-.08-6.32-2.92-6.55-6.84,1.83-.02,3.84-1.11,4.98,1.56.25.58,1.57.99,2.42,1.01,5.05.1,10.09.08,15.14.04,2.24-.02,3.21-1.08,3.3-3.36.02-.57.02-1.14,0-1.72-.08-2.45-.99-3.36-3.42-3.38-2.5-.02-5,0-7.6,0v-4.44h7.26c2.92,0,3.75-.88,3.77-3.91.02-3.61-.75-4.54-3.84-4.55-4.68-.02-9.38,0-14.06-.02-1.64,0-2.66.62-3.75,1.94-.73.88-2.67.8-4.16,1.17.07-4.06,2.44-7.09,5.97-7.23,5.97-.25,11.96-.24,17.93,0,3.36.13,5.83,2.84,6.15,6.2.29,3,.39,6.05-1.94,8.61h-.01Z"/>
  <path class="cls-1" d="M119.89,313.05c-.43,3.36-2.3,5.16-5.4,5.21-4.04.06-8.08.07-12.11,0-3.1-.06-5.2-2.24-5.33-5.34-.02-.71-.02-1.43,0-2.14.1-3.19,2.24-5.34,5.48-5.37,3.67-.05,7.35.01,11.02-.02,2.55-.02,3.11-.71,3.09-3.5-.02-2.48-.55-3-3.07-3.01-3.46-.02-6.92-.05-10.38.04-.79.02-2.03.25-2.28.76-.87,1.81-2.26,1.32-3.63,1.26-.12-2.88,1.81-5.21,4.71-5.3,4.31-.14,8.65-.14,12.96,0,2.36.08,4.18,1.45,4.68,3.78.36,1.69.37,3.57.04,5.28-.5,2.49-2.67,3.87-5.73,3.93-3.53.07-7.07,0-10.59.02-2.47.02-2.98.58-3,3.11-.01,2.69.5,3.31,3,3.34,3.46.04,6.92.06,10.38-.02.8-.02,2.03-.26,2.3-.79.92-1.75,2.29-1.3,3.85-1.22h.01Z"/>
  <path class="cls-1" d="M145.66,307.11c0,1.93.04,3.86,0,5.79-.08,3.21-2.23,5.33-5.49,5.37-3.97.06-7.92.06-11.89,0-3.13-.05-5.37-2.07-5.48-5.18-.15-4.06-.14-8.14,0-12.21.12-3.22,2.36-5.24,5.62-5.3,3.88-.06,7.78-.06,11.68,0,3.37.06,5.49,2.2,5.58,5.54.05,2,0,4,0,6.01h-.01ZM134.38,298.86c-1.87,0-3.75.04-5.62,0-1.78-.04-2.72.73-2.7,2.53v11.14c0,1.68.88,2.53,2.53,2.54,3.75.02,7.49.02,11.25.01,1.64,0,2.61-.82,2.62-2.47.04-3.79.04-7.58,0-11.36-.02-1.66-.97-2.43-2.65-2.39-1.8.04-3.6,0-5.41,0h-.01Z"/>
  <path class="cls-1" d="M104.04,262.09h-4.28v-6.49c0-5.15-.02-10.28.01-15.43,0-1.56-.66-2.49-1.83-3.57-.88-.81-.81-2.66-1.18-4.15,4.02-.02,7.16,2.56,7.23,6.09.17,7.77.05,15.55.05,23.54h0Z"/>
  <path class="cls-1" d="M175.78,301.34c3.09-3.5,6.64-2.99,8.75,1.26.24.48.85.85,1.37,1.08,1.7.79,2.65,2.05,2.36,3.9-.3,1.92-1.6,2.95-3.59,3.1-1,.07-1.68-.05-2.11-1.24-.36-1-1.18-2.34-2.06-2.57-2.87-.76-3.86-2.92-4.72-5.53h0Z"/>
  <path class="cls-1" d="M105.42,278.26c-1.01,1.7-2.04,3.42-3.25,5.46-1.24-1.92-2.34-3.61-3.42-5.31-.19,0-.38-.01-.57-.02v7.72c-.27-.01-.56-.02-.83-.05v-11.41c2.42,1.75,3.09,4.55,4.87,6.72,1.37-2.25,2.74-4.5,4.11-6.76.21.08.42.17.63.25v11.15c-.26.04-.54.06-.8.1-.08-1.26-.2-2.51-.24-3.78-.05-1.33,0-2.67,0-4l-.48-.07h-.02Z"/>
  <path class="cls-1" d="M116.15,237.95c.04,2.18-1.41,3.75-3.5,3.78-2.09.04-3.57-1.51-3.59-3.69s1.44-3.75,3.5-3.79c2.07-.04,3.54,1.49,3.57,3.71h.01Z"/>
  <path class="cls-1" d="M116.15,259.13c.05,2.23-1.35,3.74-3.47,3.78s-3.61-1.45-3.62-3.65c-.01-2.22,1.39-3.74,3.49-3.78,2.14-.04,3.55,1.39,3.6,3.65Z"/>
  <path class="cls-1" d="M138.69,280.54c-.19,1.04-.32,2.25-.67,3.41-.45,1.53-1.58,2.38-3.21,2.39s-2.98-.79-3.18-2.35c-.3-2.23-.38-4.53-.12-6.74.2-1.68,1.51-2.7,3.4-2.67,1.89.04,2.9,1.1,3.29,2.81.21.97.31,1.97.49,3.15h0ZM132.22,280.53c.27,1.17.39,2.41.88,3.46.26.56,1.2,1.16,1.81,1.13.61-.02,1.67-.77,1.69-1.27.15-2.28.13-4.59-.08-6.88-.05-.46-1.13-1.16-1.75-1.17-.61,0-1.53.6-1.78,1.17-.46,1.07-.55,2.31-.8,3.55h.02Z"/>
  <path class="cls-1" d="M169.97,280.73c-.25,1.08-.25,2.59-.94,3.65-.61.92-2,1.86-3.03,1.85-1.02-.02-2.74-1.08-2.91-1.93-.45-2.31-.49-4.77-.25-7.13.18-1.72,1.57-2.66,3.43-2.57,1.75.08,2.8,1.05,3.16,2.7.23,1.04.32,2.11.52,3.46v-.02ZM163.48,280.34c.27,1.14.39,2.53.94,3.72.77,1.64,3.07,1.62,3.41-.08.43-2.28.18-4.71-.02-7.05-.04-.44-1.18-1.12-1.79-1.11-.62.01-1.47.64-1.75,1.23-.45.93-.51,2.04-.79,3.3Z"/>
  <path class="cls-1" d="M187.72,280.74c-.24,1.07-.24,2.57-.93,3.63-.61.92-2,1.85-3.03,1.83-1.02-.02-2.74-1.07-2.91-1.92-.45-2.31-.49-4.77-.25-7.13.17-1.73,1.58-2.65,3.44-2.57,1.76.07,2.79,1.05,3.16,2.7.23,1.04.32,2.11.51,3.47v-.02ZM186.42,280.48c-.23-1.12-.31-2.36-.77-3.44-.25-.58-1.17-1.26-1.74-1.23-.69.05-1.85.77-1.88,1.29-.19,2.22-.18,4.47.05,6.67.06.54,1.22,1.35,1.86,1.33.64,0,1.53-.77,1.83-1.43.44-.93.45-2.05.67-3.21h-.01Z"/>
  <path class="cls-1" d="M113.76,274.64c1.39,3.71,2.8,7.4,4.19,11.1-.18.15-.36.3-.54.45-.42-.48-1.1-.89-1.22-1.43-.36-1.67-1.43-1.78-2.84-1.8-1.48-.02-2.47.24-2.81,1.85-.11.52-.68.95-1.04,1.43-.21-.12-.42-.23-.63-.35,1.42-3.78,2.82-7.55,4.24-11.32.21.02.42.04.63.06h0ZM115.06,281.73c-.58-1.62-1.06-2.94-1.68-4.64-.61,1.82-1.06,3.16-1.55,4.64h3.23Z"/>
  <path class="cls-1" d="M151.17,293.17c1.57.04,2.87,1.36,2.85,2.92-.01,1.66-1.44,2.95-3.12,2.85-1.58-.1-2.79-1.43-2.72-3.01.07-1.57,1.39-2.8,2.99-2.76h0Z"/>
  <path class="cls-1" d="M126,275.09c-.5.92-.97,1.86-1.51,2.75-1.3,2.17-2.48,4.34-2.1,7.02.05.37-.35.8-.54,1.2-.25-.26-.75-.57-.71-.79.64-3.85-1.85-6.61-3.36-9.7-.08-.18-.11-.38-.3-1.07,2.87,1.04,2.75,3.94,4.38,5.42,1.58-1.43,1.45-4.24,4.15-4.84h-.01Z"/>
  <path class="cls-1" d="M173.82,284.8c1.48.12,2.8.24,4.12.35,0,.23-.01.44-.02.67h-6.45c.93-1.16,1.85-2.22,2.66-3.35.66-.93,1.39-1.89,1.69-2.95.29-1,.39-2.35-.08-3.16-.27-.46-1.87-.18-2.87-.23-.26-.01-.54,0-1.31,0,1.25-1.55,2.68-1.92,3.91-1.41.92.38,2.16,1.74,2.04,2.47-.29,1.82-1.2,3.57-2.01,5.29-.38.81-1.07,1.48-1.7,2.32h.04Z"/>
  <path class="cls-1" d="M153.72,285.88c1.24-1.63,2.44-3.05,3.44-4.59.61-.94,1.11-2.03,1.35-3.12.38-1.81-.67-2.73-2.49-2.38-.56.11-1.12.27-1.73.21.92-1.55,2.35-1.64,3.81-1.25,1.49.39,2.2,1.7,1.73,3-.88,2.43-2.14,4.72-3.24,7.08.94.08,2.28.2,3.61.33-.02.24-.04.48-.06.73h-6.42Z"/>
  <path class="cls-1" d="M141.2,285.2c.66-.15,1.32-.31,2.09-.49v-7.97c-.87.46-1.6.86-2.32,1.24-.14-.2-.29-.41-.43-.6,1.19-.97,2.37-1.92,4-3.23v10.49c.99.26,1.67.45,2.36.63l-.1.57h-5.62c0-.21.02-.42.04-.63h-.01Z"/>
  <path class="cls-2" d="M134.38,298.86c1.8,0,3.6.02,5.41,0,1.68-.04,2.63.74,2.65,2.39.05,3.79.05,7.58,0,11.36-.01,1.64-.98,2.47-2.62,2.47-3.75,0-7.49.01-11.25-.01-1.64-.01-2.54-.86-2.53-2.54v-11.14c0-1.8.93-2.57,2.7-2.53,1.87.04,3.75,0,5.62,0h.01Z"/>
  <path class="cls-2" d="M132.22,280.53c.25-1.24.33-2.48.8-3.55.25-.57,1.17-1.17,1.78-1.17s1.7.7,1.75,1.17c.2,2.28.24,4.59.08,6.88-.04.49-1.08,1.24-1.69,1.27-.61.02-1.55-.56-1.81-1.13-.5-1.06-.61-2.3-.88-3.46h-.02Z"/>
  <path class="cls-2" d="M163.48,280.34c.27-1.26.33-2.38.79-3.3.29-.58,1.14-1.2,1.75-1.23.61-.01,1.75.66,1.79,1.11.19,2.35.45,4.78.02,7.05-.32,1.7-2.63,1.73-3.41.08-.56-1.18-.67-2.56-.94-3.72Z"/>
  <path class="cls-2" d="M186.42,280.48c-.21,1.14-.23,2.28-.67,3.21-.31.66-1.19,1.42-1.83,1.43-.64,0-1.8-.8-1.86-1.33-.23-2.2-.24-4.47-.05-6.67.05-.51,1.2-1.24,1.88-1.29.57-.04,1.49.64,1.74,1.23.46,1.08.55,2.32.77,3.44h.01Z"/>
  <path class="cls-2" d="M115.06,281.73h-3.23c.5-1.48.94-2.81,1.55-4.64.61,1.69,1.08,3.01,1.68,4.64Z"/>
</svg>