<?xml version="1.0" encoding="UTF-8"?>
<svg id="Layer_1" data-name="Layer 1" xmlns="http://www.w3.org/2000/svg" version="1.1" viewBox="0 0 1636.09 966.84">
  <defs>
    <style>
      .cls-1 {
        fill: #000;
        stroke-width: 0px;
      }
    </style>
  </defs>
  <path class="cls-1" d="M506.71,169.34H230.64c11.53-48.54,22.06-94.53,34.03-140.16,1.03-3.93,11.61-7.56,17.81-7.66,40.55-.69,81.13-.36,121.7-.36h608.59c-10.99,46.83-21.04,92.2-33.03,137.06-1.34,5.04-13.71,10.2-21.02,10.26-77.23.74-154.48,1.29-231.69-.11-19.91-.36-26.46,6.27-30.56,24.27-51.49,226.06-103.89,451.9-155.34,677.97-3.5,15.38-8.13,22.18-25.32,21.81-50.69-1.07-101.43-1.09-152.11-.02-19.05.4-22.37-5.96-18.42-22.97,50.42-216.87,100.42-433.83,150.49-650.77,3.6-15.63,6.96-31.31,10.96-49.33h-.02Z"/>
  <path class="cls-1" d="M769.73,675.71c72.5-55.66,134.43-57.01,179.82-6.39,42.87,47.81,42.08,121.06-1.81,168.32-46.62,50.2-106.65,48.55-174.76-4.87-.9.94-2.35,1.75-2.62,2.86-2.44,9.93-3.71,28.1-7.13,28.5-18.27,2.15-37.09.19-55.63-1.37-2.06-.17-5.91-9.08-4.92-10.13,4.1-4.32,10.41-10.78,14.72-9.99,29.15,5.36,28.35-11.93,28.14-32.51-.75-76.08-.62-152.18-.01-228.26.11-14.08-1.96-21.01-18.43-20.5-8.17.25-16.57-6.95-24.87-10.78,8.45-4.46,16.73-12.38,25.37-12.79,42.09-2,42.13-1.29,42.13,41.17v96.74h0ZM863.43,850.56c51.57.05,93.58-42.77,94.31-96.15.74-53.57-42.38-99.14-94.01-99.35-51.86-.21-93.92,44.26-93.61,98.97.31,54.39,41,96.48,93.31,96.53Z"/>
  <path class="cls-1" d="M1503.52,838.74c29.55-59.97,57.25-116.2,86.7-175.97-12.58,0-22,1.41-30.65-.55-4.83-1.09-8.4-7.78-12.54-11.95,3.98-3.55,7.86-10.03,11.95-10.15,22.32-.69,44.7-.21,67.01.9,3.71.18,10.46,5.98,10.08,8.21-.8,4.74-4.76,9.5-8.55,13.03-5.23,4.87-14.1,7.33-16.95,13.04-42.96,86.02-85.19,172.4-127.52,258.74-.88,1.79-.85,4.03-1.44,7.07,10.54.53,20.77-.18,30.35,2.02,5.04,1.15,8.92,7.37,13.32,11.29-4.18,4.12-8.29,11.75-12.55,11.83-43.41.84-86.86.8-130.27-.13-4.08-.09-8-7.98-11.99-12.25,4.6-3.77,8.97-10.4,13.85-10.8,18-1.48,36.31.35,54.21-1.69,7.46-.85,17.27-6.59,20.74-12.97,33.07-60.87,32.75-61.05,1.8-123-19.73-39.5-38.78-79.37-59.66-118.26-5.4-10.06-16.74-16.83-24.9-25.54-3.18-3.39-7.47-8.25-6.98-11.85.5-3.66,6.19-9.3,9.76-9.42,23.11-.8,46.28-.74,69.38.17,3.39.13,9.62,6.86,9.12,9.49-.87,4.57-5.45,11.07-9.44,11.86-9,1.78-18.59.56-32.57.56,29.67,59.63,57.68,115.93,87.74,176.35v-.03Z"/>
  <path class="cls-1" d="M1528.4,416c-24-22.02-47.82-44.25-72.16-65.89-5.19-4.62-16.44-11.25-17.81-9.88-7.52,7.52-16.88,16.75-18.07,26.33-2.65,21.43.09,43.48-1.51,65.11-.39,5.32-8.44,13.29-14.02,14.32-11.16,2.06-23.17,1.07-34.58-.52-5.11-.71-9.59-5.9-14.36-9.06,4.36-4.02,9.37-12.03,12.98-11.45,32.82,5.34,29.06-15.76,28.89-36.57-.57-69.61-.55-139.23.05-208.84.13-14.66-1.48-23.16-19.52-21.94-7.25.49-15.01-6.65-22.54-10.32,7.47-3.7,14.78-10.2,22.42-10.62,41.32-2.26,41.35-1.74,41.35,39.7v148.81c29.21-24.31,54.85-45.65,78.91-65.68-6.46-6.89-11.62-12.41-16.79-17.93,7.28-3.15,14.43-8.57,21.87-9.02,20.23-1.21,40.6-.84,60.86.2,4.03.21,10.5,5.92,10.85,9.57.34,3.51-6.41,11.36-9,10.94-30.03-4.92-45.69,17.86-65.16,32.88-13.71,10.58-26.52,22.32-41.38,34.94,32.4,33.35,63.48,66.39,96.07,97.86,5.43,5.24,17.79,2.66,26.31,5.56,5.9,2.01,10.71,7.23,16.01,11.01-5.14,3.69-10.09,10.19-15.47,10.58-18.76,1.35-37.74,1.55-56.49.16-7.94-.59-15.52-6.19-23.26-9.52,6.16-5.6,12.32-11.21,18.48-16.81,2.35-1.3,4.7-2.61,7.05-3.91h.02Z"/>
  <path class="cls-1" d="M965.95,345.14h-205.46c-3.77,42.35,38.44,84.11,87.52,87.24,34.92,2.23,67.28-6.2,97.4-24.48,5.09-3.08,13.53-.62,20.43-.72-2.41,6.15-3.08,14.28-7.49,18.14-52.85,46.29-156.01,37.41-199.05-16.55-31.58-39.59-34.66-94.48-7.51-133.74,30.76-44.48,88.11-62.27,140.98-43.75,47.08,16.49,75.67,59.87,73.18,113.85h0ZM941.27,321.92c-2.59-43.34-42.83-75.17-93.21-74.72-46.85.42-86.8,34.06-88.12,74.72h181.33Z"/>
  <path class="cls-1" d="M1244.16,842.41c-25.33,10.22-49.44,24.33-75.33,29.52-57.42,11.5-90.89-18-91.42-76.23-.34-36.94-.71-73.89.22-110.81.4-15.84-2.38-24.03-20.93-22.58-7.27.57-15.15-6.75-22.75-10.48,7.79-4.28,15.41-11.87,23.4-12.29,44.33-2.33,44.36-1.73,44.36,43.32,0,39.84-.23,79.68.08,119.51.24,31.21,17.66,48.12,48.64,48.2,35.82.09,63.79-16.87,87.62-41.56,4.35-4.51,6.55-12.79,6.67-19.38.63-36.2-.28-72.44.59-108.63.34-14.22-4.02-20.02-18.41-18.12-6.41.85-13.56,1.7-19.39-.31-6.41-2.21-11.68-7.7-17.45-11.77,5.97-3.91,11.65-10.65,17.95-11.3,59.72-6.13,59.75-5.83,59.75,54.37,0,43.46.34,86.92-.21,130.37-.15,12.18,1.85,18.57,16.26,18.4,5.64-.06,11.38,7.86,17.07,12.15-6.05,3.86-11.99,7.93-18.24,11.45-1.66.93-4.28.03-6.44.21-19.11,1.68-37.29,2.22-32.05-24.05h.01Z"/>
  <path class="cls-1" d="M1236.66,245.88c7.82-4.76,14.42-8.77,21.01-12.78,2.85,7.52,7.41,14.87,8.17,22.6,1.27,12.9.93,26.14-.46,39.04-.49,4.51-5.54,11.12-9.47,11.9-3.48.69-10.34-4.45-12.23-8.6-19.07-42.03-47.86-56.9-97.92-49.62-40.3,5.87-69.32,35.56-74.61,76.34-9.07,69.91,43.38,120.51,113.39,105.7,24.47-5.18,46.53-21.35,70.01-31.81,6.21-2.76,13.57-2.94,20.4-4.3-1.76,7.08-1.31,16.15-5.62,20.94-37.5,41.59-124.13,52.37-171.33,22.19-49.53-31.67-65.88-100.45-36.65-154.13,29.22-53.66,98.84-74.81,156.79-47.5,7.18,3.39,14,7.56,18.52,10.02h0Z"/>
</svg>