<?xml version="1.0" encoding="UTF-8"?>
<svg id="V_Tv_and_sound_Image" data-name="V_Tv_and_sound Image" xmlns="http://www.w3.org/2000/svg" version="1.1" viewBox="0 0 815 401">
  <defs>
    <style>
      .cls-1 {
        fill: #000;
        stroke-width: 0px;
      }
    </style>
  </defs>
  <path class="cls-1" d="M353.26,445.55v-23.88c-31.81-1.21-63.27-.38-94.7-.53-31.55-.15-63.1-.03-94.11-.03-3.68-15.01-3.97-295.48-.82-311.42,10.77-3.29,470.59-4.18,487-.95,3.32,11.59,3.07,293.99.93,311.3-31.11,2.27-62.63.71-94.1.99-31.56.28-63.13.06-95.49.06v24.42c6.2,0,11.29,0,16.38,0,23.16,0,46.32-.11,69.48.08,14.48.12,16.83,2.79,16.97,19.29.18,22.52.24,45.04-.04,67.55-.17,13.55-3.09,16.7-14.35,17.38-2.83.17-5.67.06-8.51.06-89.81,0-179.62,0-269.43,0-3.78,0-7.58.17-11.34-.19-6.56-.63-10.73-4.94-10.79-12.89-.21-25.89-.4-51.79.06-77.68.19-10.38,3.81-13.38,14.47-13.49,23.63-.25,47.27-.08,70.9-.08,5.16,0,10.32,0,17.48,0ZM639.73,410.6V125.58H176.42c-3.2,16.94-2.82,271.66.34,285.03h462.97ZM262.72,458.94v77.33c15.6,3.41,278.98,2.69,289.5-.75v-76.58h-289.5ZM449.64,446.02v-21.78h-83.97v21.78h83.97Z"/>
  <path class="cls-1" d="M765.27,484.55v50.93c9.04,6.73,20.21-1.96,29.45,8.86-3.15,2.17-5.52,5.2-7.91,5.23-26.53.36-53.06.4-79.59.04-2.47-.03-4.91-3.33-7.37-5.11,2.34-2.02,4.54-5.45,7.03-5.78,6.32-.83,12.77-.28,20.1-.28v-53.27c-9.41-.2-18.56-.37-27.71-.58-16.94-.38-20.78-4.58-20.8-24.43-.09-114.76-.1-229.52,0-344.28.02-19.85,4.07-24.51,20.61-24.57,31.65-.11,63.31-.11,94.96.03,15.98.07,19.69,4.5,19.7,23.61.06,115.32.07,230.63,0,345.95-.01,19.5-3.29,23.27-19.67,23.61-9.17.19-18.35.03-28.81.03ZM801.66,472.37c3.21-14.48,3.32-353.01.35-367.28-13.55-3.49-101.32-3.06-112.87.82-.32,3.92-.97,8.22-.98,12.52-.05,113.11-.07,226.23,0,339.34,0,15.01.71,15.79,13.61,15.86,29.8.15,59.59.08,89.39-.03,3.6-.01,7.2-.83,10.49-1.23ZM754.09,537.37v-52.48c-6.01.37-10.74.66-15.37.94v51.54h15.37Z"/>
  <path class="cls-1" d="M87.06,484.58c0,14.91-.06,26.5.03,38.09.04,4.34.44,8.67.76,14.66,7.27.39,14.13.22,20.82,1.41,2.38.43,4.35,4.17,6.5,6.39-2.19,1.55-4.37,4.42-6.57,4.44-27,.28-54,.24-81-.08-2.13-.03-4.24-2.77-7.2-4.84,8.56-11.71,19.79-2.59,29.13-8.83v-50.69c-9.48-.2-18.59-.4-27.7-.59-17.38-.36-20.59-3.96-20.6-24.23-.05-114.78-.05-229.56,0-344.34,0-20.28,3.56-24.57,20.27-24.64,31.66-.13,63.32-.14,94.98-.01,15.77.06,19.99,4.79,20,23.55.12,115.33.11,230.67.01,346-.02,18.87-4.01,23.34-19.97,23.66-9.2.18-18.41.03-29.48.03ZM125.41,470.96c2.74-21.33,1.96-354-.74-365.88-13.1-3.41-101.48-2.97-112.91.83v364.58c11.32,4.11,99.78,4.48,113.65.48ZM60.67,485.79v51.23h15.8v-51.23h-15.8Z"/>
  <path class="cls-1" d="M339.33,525.43c-2.52-4.59-4.6-6.66-4.67-8.82-.37-11.46-.58-22.97-.04-34.41.13-2.68,3.35-5.16,5.14-7.73,1.39,2.46,3.88,4.87,3.98,7.4.42,11.46.34,22.96,0,34.43-.06,2.23-2.04,4.39-4.41,9.13Z"/>
  <path class="cls-1" d="M477.48,526.28c-3.67-4.88-5.79-6.37-5.83-7.95-.37-12.71-.53-25.45-.27-38.16.04-1.92,2.38-4.4,4.14-5.36.87-.48,4.03,1.78,4.13,3.03,1.22,15.01,2.86,30.14-2.18,48.44Z"/>
  <path class="cls-1" d="M704.82,160c.29-27.75,18.87-49.15,42.27-48.67,23.06.48,41.63,23.34,41.06,50.55-.57,27.57-19.42,49.05-42.65,48.62-23.4-.44-40.97-22.25-40.68-50.5ZM746.73,122.93c-17.8-.15-32.19,16.14-32.74,37.05-.55,21.15,14.38,39.12,32.51,39.1,17.46-.01,31.76-17.09,31.85-38.01.09-20.96-14.04-38-31.62-38.14Z"/>
  <path class="cls-1" d="M745.6,337.45c-23.48-.33-41.12-22.07-40.81-50.28.3-27.82,18.9-49.4,42.18-48.94,22.85.45,41.62,23.5,41.2,50.58-.43,27.51-19.21,48.97-42.56,48.64ZM745.84,249.88c-17.4.24-32.11,17.85-31.92,38.21.2,21.29,15.75,39.14,33.43,38.35,17.38-.77,31.35-18.5,30.96-39.3-.39-20.96-14.81-37.51-32.47-37.27Z"/>
  <path class="cls-1" d="M704.75,415.19c-.02-27.75,18.35-49.93,41.42-49.99,22.84-.06,41.88,22.51,41.95,49.75.07,27.46-18.62,49.73-41.71,49.68-23.59-.04-41.64-21.47-41.66-49.44ZM746.04,376.81c-17.44.21-32.06,17.58-32.1,38.14-.04,21.13,15.5,39.18,33.24,38.59,17.23-.57,31.48-18.45,31.16-39.12-.32-20.87-14.88-37.83-32.3-37.62Z"/>
  <path class="cls-1" d="M110.22,288.79c-.3,28.05-18.37,48.88-42.19,48.62-23.12-.25-41.69-22.91-41.17-50.24.52-27.4,19.68-49.46,42.54-48.98,23.22.49,41.12,22.68,40.82,50.6ZM36.65,287.23c-.34,20.77,13.62,38.39,31.07,39.22,17.61.84,33.31-17.29,33.3-38.44-.01-20.66-14.51-37.97-31.95-38.14-17.63-.18-32.08,16.47-32.42,37.36Z"/>
  <path class="cls-1" d="M110.17,415.05c-.03,28.14-18.04,49.69-41.46,49.62-23.19-.07-41.87-22.19-41.89-49.59-.02-27.12,18.96-49.76,41.87-49.94,23.01-.18,41.51,22.08,41.48,49.91ZM36.66,415.37c.1,20.65,14.76,38.2,31.95,38.23,17.15.03,32.1-17.44,32.46-37.92.37-21.07-15.04-39.29-32.88-38.86-17.54.42-31.63,17.65-31.54,38.56Z"/>
  <path class="cls-1" d="M110.19,160.29c.26,28.16-17.42,49.84-40.93,50.2-23.19.36-42.02-21.36-42.39-48.9-.37-27.3,18.14-49.84,41.3-50.29,23.26-.45,41.76,21.13,42.02,48.99ZM68.31,199.03c17.63.12,32.19-16.42,32.73-37.17.55-21.26-14.26-38.94-32.55-38.89-17.66.05-31.77,16.85-31.82,37.89-.05,20.98,14.1,38.05,31.64,38.17Z"/>
  <path class="cls-1" d="M768.87,160.13c.3,14.8-8.94,26.76-21.23,27.48-13.06.77-23.58-10.57-24.04-25.91-.45-15.1,9.77-27.44,22.74-27.46,12.45-.02,22.24,11.23,22.54,25.89ZM746.57,145.74c-7.24-.19-13.57,7.25-13.31,15.62.24,7.6,6.32,14.92,12.61,15.17,6.94.28,13.26-7.43,13.09-15.97-.17-8.27-5.49-14.64-12.39-14.82Z"/>
  <path class="cls-1" d="M745.73,261.14c12.84-.25,23.24,11.88,23.15,27.02-.09,14.82-9.48,26.08-22.04,26.44-13.17.38-23.15-11.24-23.03-26.81.12-14.89,9.59-26.4,21.93-26.64ZM746.88,272.94c-7.31-.44-13.67,6.62-13.66,15.17,0,7.54,5.91,14.97,12.29,15.46,6.99.54,13.41-6.86,13.47-15.51.05-8.25-5.1-14.7-12.09-15.12Z"/>
  <path class="cls-1" d="M746.37,442.18c-12.73.02-22.79-12.47-22.5-27.91.28-14.59,10.19-26.21,22.4-26.27,12.56-.06,23.03,12.8,22.65,27.81-.36,14.37-10.61,26.35-22.55,26.37ZM746.13,430.54c6.65.12,12.39-6.36,12.82-14.47.46-8.76-5.34-16.23-12.65-16.27-6.56-.03-12.66,6.67-13.07,14.37-.43,8.2,5.9,16.24,12.9,16.37Z"/>
  <path class="cls-1" d="M68.69,314.63c-12.51.03-22.22-11.09-22.57-25.85-.36-15.19,9.84-27.63,22.63-27.6,12.31.03,22.28,11.5,22.58,25.98.32,15.51-9.51,27.43-22.65,27.47ZM68.73,303.57c6.9.01,13.34-8.04,12.99-16.24-.34-7.9-6.1-14.35-12.87-14.39-7.46-.05-13.23,7.11-12.86,15.94.34,7.87,6.23,14.68,12.74,14.69Z"/>
  <path class="cls-1" d="M91.14,415.27c-.13,15.31-10.8,27.6-23.35,26.93-12.05-.65-21.83-12.98-21.7-27.35.14-15.11,10.89-27.4,23.48-26.84,12.12.54,21.7,12.65,21.57,27.27ZM81.8,414.75c-.09-7.69-5.97-14.69-12.59-14.98-7.26-.32-13.38,6.93-13.24,15.68.13,7.96,5.74,14.78,12.4,15.05,6.96.29,13.52-7.41,13.42-15.75Z"/>
  <path class="cls-1" d="M91.14,161.33c-.2,15.66-10.25,26.89-23.48,26.24-12.43-.61-21.71-12.25-21.56-27.05.16-15.24,10.62-26.86,23.62-26.25,12.49.59,21.6,12.1,21.41,27.06ZM69.09,176.52c6.34-.18,12.43-7.42,12.67-15.06.26-8.43-6.04-15.88-13.27-15.7-7.47.19-13.06,7.53-12.49,16.39.5,7.87,6.59,14.55,13.1,14.36Z"/>
</svg>