<?xml version="1.0" encoding="UTF-8"?>
<svg id="usb_and_handdrive_Image" data-name="usb and handdrive Image" xmlns="http://www.w3.org/2000/svg" version="1.1" viewBox="0 0 154.5 146.25">
  <defs>
    <style>
      .cls-1 {
        fill: #000;
        stroke-width: 0px;
      }
    </style>
  </defs>
  <path class="cls-1" d="M85.01,106.87c.35-.35.65-.63.93-.94,1.39-1.49,1.45-2.4-.31-3.42-2.21-1.27-3.65-3.29-5.46-4.95-1.17-1.07-1.12-1.65,0-2.78,2.86-2.9,5.72-5.8,8.66-8.63.89-.86,1.25-1.69,1.25-2.96-.05-14.52.16-29.05-.13-43.56-.11-5.61-2.44-8.32-7.64-10.09-.56-.19-1.22-.12-1.83-.12-3.55,0-7.11.07-10.66-.02-4.86-.13-9.36,4.4-9.27,9.25.1,4.8.01,9.61.03,14.42,0,.65-.34,1.58.94,1.47.08,0,.34.71.28.75-1.04.68,0,1.91-.26,2.17-1.14,1.1.43,1.6.37,2.47-.05.75.76,1.52,1.06,2.34.38,1.01.86,1.95.77,3.15-.16,2.08,0,4.18-.06,6.26-.03.87.31,1.03,1.08,1.02,2.72-.04,5.43-.08,8.15.01,1.17.04,2.5.11,3.46.67,1.37.8,2.44,1.87,2.43,3.9-.09,20.79-.07,41.58-.02,62.37,0,1.07-.26,2.03-.72,2.85-.59,1.06-1.5,1.72-2.99,1.71-14.63-.07-29.25-.06-43.88-.02-1.27,0-2.5-.24-3.28-1.11-.66-.74-.91-1.91-1.19-2.92-.16-.58-.03-1.25-.03-1.87,0-19.74,0-39.49.02-59.23,0-.97.03-1.91.44-2.94.39-.96.63-1.99,1.49-2.48.91-.51,2.01-.83,3.05-.9,1.98-.14,3.97-.04,5.95-.04,5.33,0,10.66-.02,15.98.02.85,0,1.34-.06,1.29-1.13-.09-1.88,0-3.76-.03-5.64-.02-1.43.05-2.75.97-4,.67-.91.93-2.11,1.37-3.18,0,0-.18-3.03-.18-3.03-.46-.63-.52-1.1.45-1.23.82-.11.51-.77.51-1.22.02-4.39,0-8.78.01-13.16,0-2.38,1.14-6.51,2.53-8.35,1.95-2.59,4.61-4.11,7.88-4.2,4.18-.11,8.36.06,12.53-.05,4.93-.13,8.63,3.12,10.27,7.65.47,1.31.69,2.67.68,4.12-.05,14.73-.01,29.46-.07,44.19,0,1.46.31,2.53,1.44,3.51,1.57,1.37,3.01,2.9,4.44,4.42.56.6,1.42,1.08,1.86.66,1.24-1.19,1.77-.19,2.48.51,3.92,3.91,7.83,7.83,11.75,11.74,1.26,1.26,1.21,1.17,2.63-.05,1.85-1.58,2.42-3.58,2.41-5.91-.03-6.89-.03-13.79,0-20.68,0-2.34-.91-4.56-.72-6.96.07-.92-.7-2.01-1.33-2.84-.99-1.31-1.13-2.72-1.11-4.26.05-3.03,0-6.06.02-9.09,0-1.89.01-1.89,2.04-1.9,1.88,0,3.76.02,5.64-.01.71-.01,1.13.05,1.12.98-.05,4.07,0,8.15-.04,12.22,0,.46-.18,1-.46,1.36-1.44,1.89-1.71,4.08-2.12,6.36-.74,4-.45,7.99-.52,11.98-.07,4.07,0,8.15-.02,12.22-.02,3.23-1.23,5.97-3.51,8.26-1.16,1.16-1.15,1.19.04,2.39,4.43,4.44,8.83,8.9,13.31,13.28,1.47,1.44,1.97,3.04,2.17,5.1.31,3.27-.86,6-2.73,8.28-1.45,1.76-3.63,2.99-6.03,3.46-.77.15-1.55-.13-2.33.52-.34.29-1.42-.47-2.16-.48-2.03-.03-3.64-.93-5.03-2.26-6.14-5.89-12.27-11.79-18.36-17.73-3.95-3.86-7.83-7.79-11.74-11.69ZM132.12,127.17c-.67-2.04-1.1-4.33-2.69-5.98-4.2-4.34-8.53-8.56-12.79-12.86-.45-.45-.62-.24-1.14-.05-3.04,1.08-6.16,1.7-9.44,1.42-1.76-.15-3.54-.01-5.31-.04-.6,0-1.23-.01-1.79-.2-3.05-1.02-5.9-2.31-7.39-5.46-.22-.47-.62-.74-1.1-.1-.37.49-.88.89-1.31,1.34-1.48,1.53-1.48,1.69.02,3.24.36.38.74.74,1.1,1.11,8.38,8.34,16.68,16.76,25.35,24.8,3.08,2.86,6.39,3.16,10.04,1.99,1.69-.55,3.32-1.51,4.34-3.06,1.2-1.81,1.53-3.96,2.11-6.14ZM104.64,107.9c2.62-.24,5.25-.49,7.87-.73.1,0,.21.02.31,0,.92-.24,1.22-1.38.51-2.09-3.68-3.7-7.4-7.36-11.05-11.09-.82-.84-1.28-.64-1.99.09-1.95,2.03-3.98,3.99-5.96,5.99-1.47,1.49-1.62,2.33-.28,3.84.71.79,1.49,1.53,2.53,2.12,2.56,1.44,5.21,1.86,8.05,1.88ZM61.95,83.97c2.49,0,4.98.03,7.48-.01,1.32-.02,1.75-.51,1.81-1.85.01-.31,0-.62,0-.93,0-1.19-.63-2.02-1.76-2.2-.61-.1-1.24-.02-1.87-.02-3.32,0-6.65.06-9.97-.02-4.61-.11-3.89.32-3.98,4.08-.02.94.44.96,1.13.96,2.39-.02,4.78,0,7.17,0ZM90.04,96.49c0-1.35-.02-2.71,0-4.06.02-.73-.13-1.32-.57-1.97-.28-.41-.27-1.01-.92-.82-.55.16-1.13.43-1.49.84-.15.17.15.88.4,1.23.36.5.88.89,1.3,1.35.29.31.93.52.2,1.12-.58.47-.97.66-1.54.05-.49-.53-.99-1.07-1.59-1.45-.28-.18-1.01-.13-1.15.07-.25.37-.44,1.09-.24,1.4.43.69,1.2,1.16,1.65,1.84.16.24-.16.86-.36,1.25-.27.54-.54.26-.88-.03-.76-.64-1.56-1.23-2.39-1.77-.45-.29-.67-.11-.56.44.09.47.21,1.01.52,1.33,1.58,1.66,3.26,3.22,4.82,4.9.6.64,1.28.75,1.92.45.65-.31.96-.94.9-1.8-.1-1.45-.03-2.91-.03-4.37ZM92.27,88.32c-.15.11-.29.21-.44.32.18.7.68,1.51.48,2.07-.89,2.54-.11,5.11-.36,7.65-.02.2.26.48.47.62.11.08.44.01.55-.1,1.49-1.46,2.97-2.92,4.42-4.42.48-.5.07-.9-.31-1.28-1.61-1.62-3.21-3.24-4.81-4.87Z"/>
</svg>