<?xml version="1.0" encoding="UTF-8"?>
<svg id="wifi_router_Image" data-name="wifi_router Image" xmlns="http://www.w3.org/2000/svg" version="1.1" viewBox="0 0 92.88 69.36">
  <defs>
    <style>
      .cls-1 {
        fill: #000;
        stroke-width: 0px;
      }
    </style>
  </defs>
  <path class="cls-1" d="M72.34,25.62c0,3.03,0,6.06,0,9.09,0,.73.07,1.22,1.01,1.31,1.06.1,1.64.99,1.66,2.24.03,1.71.03,3.43,0,5.14-.01.66.14.98.87.92.52-.04,1.05.02,1.57.1,1.54.22,2.71,1.49,2.73,3.04.03,3.79.04,7.58,0,11.36-.02,1.83-1.29,3.11-3.12,3.17-1.68.06-3.36.06-5.04.02-.89-.02-1.38.2-1.3,1.2.06.81-.34,1.39-1.17,1.41-.84.02-1.31-.59-1.25-1.35.1-1.19-.53-1.25-1.43-1.25-9.98.02-19.96.01-29.94.01-3.66,0-7.31.01-10.97,0-.86,0-1.46.09-1.38,1.2.05.76-.37,1.4-1.2,1.41-.89,0-1.29-.61-1.22-1.46.08-.95-.4-1.18-1.24-1.16-1.58.04-3.16.04-4.74,0-2.24-.05-3.47-1.3-3.47-3.53-.01-3.49,0-6.98,0-10.48,0-2.31,1.27-3.62,3.57-3.69q1.6-.05,1.6-1.64c0-1.45-.02-2.9,0-4.35.02-1.45.58-2.04,1.98-2.4.27-.07.62-.47.65-.75.09-.81.04-1.64.04-2.47,0-5.3,0-10.61,0-15.91,0-.36-.1-.8.07-1.07.24-.41.66-.94,1.04-.97.38-.03.94.39,1.19.77.22.34.17.89.17,1.34.01,5.96.02,11.93,0,17.89,0,.73.03,1.2.98,1.27,1.01.08,1.61,1,1.62,2.17.02,1.61,0,3.23,0,4.84q0,1.28,1.29,1.28c10.41,0,20.82,0,31.23-.01,2.5,0,5.01,0,7.51,0,1.82,0,1.59.2,1.61-1.56.01-1.45,0-2.9,0-4.35,0-1.5.51-2.15,2.01-2.43.71-.13.58-.6.58-1.03.01-2.96,0-5.93,0-8.89,0-3.03,0-6.06,0-9.09,0-.3,0-.6.02-.89.09-.77.44-1.38,1.28-1.35.84.03,1.17.62,1.17,1.42,0,3.16,0,6.32,0,9.49,0,0,0,0,0,0ZM46.54,46.34c-9.98,0-19.96,0-29.94,0-1.54,0-1.86.31-1.86,1.85,0,3.39,0,6.79,0,10.18,0,1.26.39,1.64,1.66,1.67,1.12.02,2.24,0,3.36,0,18.78,0,37.55,0,56.33,0,1.78,0,2.05-.28,2.06-2.06,0-3.2,0-6.39,0-9.59,0-1.8-.26-2.05-2.05-2.05-9.85,0-19.7,0-29.55,0ZM23.57,41.18c0-3.4,0-3.38-2.87-3.2-.52.03-.79.19-.79.74.01,1.64-.02,3.29.03,4.93,0,.22.39.59.63.62,3,.34,3,.33,3-2.7,0-.13,0-.26,0-.39ZM72.97,41.14q0-3.3-2.8-3.15s-.07,0-.1,0c-.54-.04-.77.22-.76.76.02.95-.02,1.9,0,2.86.09,3.22-.67,2.62,2.87,2.69.03,0,.08.01.1,0,.23-.23.64-.45.66-.7.09-.81.03-1.64.03-2.46Z"/>
  <path class="cls-1" d="M46.52,18.72c5.84.04,11.25,1.53,16.12,4.83.46.31.99.61,1.29,1.05.23.32.35,1.05.16,1.26-.27.3-.88.31-1.36.38-.15.02-.33-.2-.49-.31-9.41-6.79-22.13-6.82-31.52-.08-.16.12-.31.24-.49.34-.56.32-1.08.27-1.49-.26-.41-.52-.25-1.05.21-1.39.97-.73,1.95-1.46,3.01-2.07,4.5-2.58,9.37-3.77,14.56-3.75Z"/>
  <path class="cls-1" d="M46.68,23.51c4.26.12,8.4,1.22,12.05,3.85.62.45,1.44.9.85,1.89-.41.68-1.02.62-2.11-.15-6.5-4.58-15.6-4.57-22.08.03-.24.17-.49.47-.74.47-.44,0-1.06-.04-1.28-.32-.21-.27-.13-.93.06-1.29.2-.37.66-.62,1.04-.88,3.63-2.45,7.68-3.53,12.2-3.6Z"/>
  <path class="cls-1" d="M46.46,28.62c3,.01,5.78.77,8.29,2.44.33.22.75.44.87.76.16.4.24,1.07.01,1.32-.27.29-.96.43-1.35.3-.63-.21-1.15-.76-1.76-1.06-4.59-2.26-9.06-2.06-13.38.75-.17.11-.32.23-.49.33-.59.34-1.19.21-1.44-.34-.17-.38-.13-1.1.13-1.4.45-.53,1.12-.91,1.74-1.26,2.21-1.25,4.67-1.85,7.37-1.85Z"/>
  <path class="cls-1" d="M46.46,40.42c-1.69.02-3.1-1.36-3.1-3.03,0-1.62,1.36-3.01,3-3.03,1.71-.02,3.13,1.32,3.16,2.98.03,1.66-1.37,3.07-3.06,3.09ZM46.46,36.09c-.72-.01-1.31.58-1.28,1.32.03.77.49,1.23,1.23,1.25.75.01,1.22-.43,1.27-1.21.05-.75-.5-1.35-1.23-1.36Z"/>
  <path class="cls-1" d="M68.97,56.87c-2.08,0-3.71-1.6-3.71-3.67,0-2.04,1.64-3.71,3.68-3.74,2.01-.02,3.73,1.69,3.72,3.7,0,2.07-1.63,3.7-3.69,3.7ZM68.96,51.5c-.93,0-1.65.76-1.65,1.72,0,.95.76,1.69,1.7,1.66.9-.03,1.59-.75,1.6-1.66,0-.94-.74-1.72-1.66-1.72Z"/>
  <path class="cls-1" d="M62.86,53.15c0,2.1-1.57,3.7-3.65,3.72-2.07.02-3.7-1.59-3.72-3.67-.02-2.08,1.69-3.78,3.76-3.74,1.98.03,3.6,1.69,3.61,3.69ZM59.19,51.49c-.89,0-1.71.83-1.69,1.72.02.88.75,1.63,1.64,1.66.91.03,1.72-.74,1.74-1.66.02-.91-.77-1.71-1.69-1.72Z"/>
  <path class="cls-1" d="M28.64,51.34c1.05,0,1.9.81,1.91,1.83,0,1.01-.86,1.86-1.89,1.87-1.02,0-1.92-.86-1.92-1.84,0-1.02.85-1.85,1.89-1.86Z"/>
  <path class="cls-1" d="M22.08,51.34c1.03-.02,1.91.82,1.92,1.83.01,1-.85,1.86-1.88,1.88-1.03.01-1.9-.82-1.92-1.83-.01-1.02.82-1.86,1.87-1.88Z"/>
  <path class="cls-1" d="M35.26,51.34c1.05.04,1.87.91,1.82,1.94-.04.98-.91,1.78-1.9,1.76-1.04-.02-1.91-.88-1.89-1.9.02-1.01.93-1.84,1.96-1.81Z"/>
</svg>